<svg width="125" height="41" viewBox="0 0 125 41" fill="none" xmlns="http://www.w3.org/2000/svg">
<path d="M36.728 12.208H34.76C34.664 10.832 34.44 9.68 34.088 8.752C33.736 7.824 33.224 7.104 32.552 6.592C31.912 6.048 31.096 5.664 30.104 5.44C29.112 5.216 27.928 5.104 26.552 5.104C25.368 5.104 24.408 5.136 23.672 5.2C22.968 5.232 22.424 5.312 22.04 5.44C21.656 5.568 21.4 5.728 21.272 5.92C21.176 6.08 21.128 6.304 21.128 6.592V32.272C21.128 33.296 21.192 34.176 21.32 34.912C21.48 35.648 21.768 36.256 22.184 36.736C22.632 37.184 23.256 37.536 24.056 37.792C24.888 38.016 25.976 38.144 27.32 38.176V40H9.176V38.176C10.52 38.144 11.608 38.016 12.44 37.792C13.272 37.536 13.896 37.184 14.312 36.736C14.76 36.256 15.048 35.648 15.176 34.912C15.336 34.176 15.416 33.296 15.416 32.272V6.592C15.416 6.304 15.352 6.08 15.224 5.92C15.128 5.728 14.904 5.568 14.552 5.44C14.232 5.312 13.768 5.232 13.16 5.2C12.552 5.136 11.736 5.104 10.712 5.104C9.464 5.104 8.296 5.152 7.208 5.248C6.152 5.344 5.224 5.632 4.424 6.112C3.656 6.56 3.032 7.264 2.552 8.224C2.072 9.184 1.816 10.512 1.784 12.208H0.00800008V3.04H36.248L36.728 12.208ZM47.5153 32.368C47.5153 33.68 47.5473 34.72 47.6113 35.488C47.6753 36.256 47.8353 36.848 48.0913 37.264C48.3793 37.648 48.7793 37.904 49.2913 38.032C49.8033 38.16 50.5233 38.256 51.4513 38.32V40H38.6833V38.32C39.6113 38.256 40.3473 38.16 40.8913 38.032C41.4353 37.904 41.8513 37.648 42.1393 37.264C42.4273 36.88 42.6033 36.336 42.6673 35.632C42.7633 34.896 42.8113 33.92 42.8113 32.704V12.592C42.8113 10.704 42.7793 9.2 42.7153 8.08C42.6833 6.96 42.6033 6.112 42.4753 5.536C42.4113 5.152 42.2993 4.848 42.1393 4.624C42.0113 4.368 41.8033 4.176 41.5153 4.048C41.2273 3.888 40.8433 3.776 40.3633 3.712C39.8833 3.648 39.2913 3.616 38.5873 3.616V1.984L47.4193 0.159998V18.448H47.6113C48.0913 17.808 48.6833 17.232 49.3873 16.72C50.1233 16.176 50.9073 15.712 51.7393 15.328C52.5713 14.944 53.4353 14.64 54.3313 14.416C55.2593 14.192 56.1553 14.08 57.0193 14.08C58.4913 14.08 59.8353 14.336 61.0513 14.848C62.2993 15.36 63.2593 16.048 63.9313 16.912C64.4753 17.648 64.8753 18.624 65.1313 19.84C65.3873 21.024 65.5153 22.64 65.5153 24.688V32.368C65.5153 33.68 65.5473 34.72 65.6113 35.488C65.6753 36.224 65.8353 36.8 66.0913 37.216C66.3793 37.632 66.7793 37.904 67.2913 38.032C67.8033 38.16 68.5233 38.256 69.4513 38.32V40H56.7313V38.32C57.6273 38.288 58.3473 38.208 58.8913 38.08C59.4353 37.92 59.8353 37.648 60.0913 37.264C60.3793 36.88 60.5553 36.336 60.6193 35.632C60.7153 34.896 60.7633 33.92 60.7633 32.704V26.656C60.7633 23.072 60.3473 20.528 59.5153 19.024C58.6833 17.488 57.2913 16.72 55.3393 16.72C53.8353 16.72 52.4593 17.104 51.2113 17.872C49.9953 18.64 49.0353 19.696 48.3313 21.04C48.1713 21.392 48.0273 21.728 47.8993 22.048C47.8033 22.336 47.7233 22.672 47.6593 23.056C47.5953 23.44 47.5473 23.888 47.5153 24.4C47.5153 24.88 47.5153 25.488 47.5153 26.224V32.368ZM86.1781 14.08C88.0021 14.08 89.7301 14.416 91.3621 15.088C92.9941 15.728 94.4181 16.624 95.6341 17.776C96.8821 18.928 97.8581 20.304 98.5621 21.904C99.2981 23.472 99.6661 25.2 99.6661 27.088C99.6661 29.04 99.2981 30.832 98.5621 32.464C97.8581 34.096 96.8821 35.504 95.6341 36.688C94.4181 37.872 92.9941 38.8 91.3621 39.472C89.7301 40.144 88.0021 40.48 86.1781 40.48C84.3861 40.48 82.6741 40.16 81.0421 39.52C79.4421 38.848 78.0341 37.92 76.8181 36.736C75.6021 35.552 74.6421 34.144 73.9381 32.512C73.2341 30.848 72.8821 29.04 72.8821 27.088C72.8821 25.2 73.2341 23.456 73.9381 21.856C74.6421 20.256 75.6021 18.88 76.8181 17.728C78.0341 16.576 79.4421 15.68 81.0421 15.04C82.6741 14.4 84.3861 14.08 86.1781 14.08ZM86.1781 16.384C84.9941 16.384 83.9061 16.64 82.9141 17.152C81.9541 17.664 81.1221 18.4 80.4181 19.36C79.7461 20.288 79.2181 21.424 78.8341 22.768C78.4821 24.08 78.3061 25.536 78.3061 27.136C78.3061 28.8 78.4821 30.304 78.8341 31.648C79.2181 32.992 79.7461 34.144 80.4181 35.104C81.1221 36.032 81.9541 36.752 82.9141 37.264C83.8741 37.776 84.9621 38.032 86.1781 38.032C87.3941 38.032 88.4981 37.776 89.4901 37.264C90.4821 36.752 91.3301 36.016 92.0341 35.056C92.7381 34.096 93.2821 32.944 93.6661 31.6C94.0501 30.256 94.2421 28.768 94.2421 27.136C94.2421 25.536 94.0501 24.08 93.6661 22.768C93.2821 21.456 92.7381 20.336 92.0341 19.408C91.3301 18.448 90.4821 17.712 89.4901 17.2C88.4981 16.656 87.3941 16.384 86.1781 16.384ZM112.64 32.368C112.64 33.68 112.672 34.72 112.736 35.488C112.8 36.256 112.96 36.848 113.216 37.264C113.504 37.648 113.904 37.904 114.416 38.032C114.928 38.16 115.648 38.256 116.576 38.32V40H103.808V38.32C104.736 38.288 105.472 38.208 106.016 38.08C106.56 37.92 106.976 37.648 107.264 37.264C107.552 36.88 107.728 36.336 107.792 35.632C107.888 34.896 107.936 33.92 107.936 32.704V27.088C107.936 24.912 107.904 23.216 107.84 22C107.808 20.784 107.648 19.888 107.36 19.312C107.104 18.736 106.688 18.4 106.112 18.304C105.536 18.176 104.736 18.112 103.712 18.112V16.432L112.112 14.608L112.784 20.56H112.976C113.392 19.6 113.904 18.72 114.512 17.92C115.152 17.12 115.84 16.448 116.576 15.904C117.312 15.328 118.08 14.88 118.88 14.56C119.68 14.24 120.496 14.08 121.328 14.08C122.352 14.08 123.152 14.336 123.728 14.848C124.336 15.328 124.64 15.984 124.64 16.816C124.64 17.584 124.4 18.192 123.92 18.64C123.44 19.056 122.752 19.264 121.856 19.264C121.344 19.264 120.912 19.2 120.56 19.072C120.208 18.944 119.888 18.816 119.6 18.688C119.344 18.528 119.088 18.384 118.832 18.256C118.608 18.128 118.352 18.064 118.064 18.064C117.2 18.064 116.336 18.624 115.472 19.744C114.608 20.832 113.936 22.224 113.456 23.92C113.2 24.848 112.992 25.904 112.832 27.088C112.704 28.24 112.64 29.456 112.64 30.736V32.368Z" fill="white"/>
</svg>
