<svg width="1600" height="310" viewBox="0 0 1600 310" fill="none" xmlns="http://www.w3.org/2000/svg">
<path d="M-0.249023 2C12.8557 16.7526 40.2064 30.8997 62.1767 45.0184C77.2521 54.7063 86.5811 65.866 93.3203 75.8747C100.738 86.8918 84.6755 96.9361 91.193 107.877C96.9975 117.621 114.681 130.812 131.658 139.851C190.006 170.921 277.282 191.975 386.387 202.454C414.849 205.188 443.767 206.265 472.39 208.218C489.756 209.403 506.002 212.13 522.652 214.38C545.939 217.526 569.756 220.041 593.222 222.978C662.011 231.59 735.121 238.405 802.428 248.572C838.301 253.991 862.339 261.619 891.66 270.053C909.537 275.195 933.715 282.887 955.554 286.351C975.055 289.443 995.075 293.215 1009.31 298.496C1022.45 303.373 1032.35 307.892 1052.98 308.134C1098.16 308.665 1146.99 302.601 1168.19 291.611C1181.23 284.844 1194.79 277.926 1207.01 271.008C1213.11 267.552 1216.16 263.643 1225.07 260.773C1235.49 257.421 1249.03 254.963 1260.82 252.068C1304.48 241.347 1363.34 237.228 1423.1 236.19C1439.31 235.908 1455.26 237.065 1471.78 238.076C1493.04 239.378 1512.27 243.242 1533.42 244.537C1547.27 245.384 1594.91 249.567 1599.57 245.901" stroke="#FFE1BD" stroke-width="3" stroke-linecap="round"/>
</svg>
