<svg width="1600" height="852" viewBox="0 0 1600 852" fill="none" xmlns="http://www.w3.org/2000/svg">
<path d="M0 2C13.88 50.9225 41.8391 94.6622 64.4652 139.458C79.9906 170.195 89.9114 207.328 97.1963 240.981C105.215 278.024 89.9084 316.699 97.0301 353.669C103.373 386.595 121.695 429.054 139.065 457.111C198.765 553.541 286.521 608.636 395.265 621.956C423.632 625.431 452.351 622.997 480.831 623.7C498.11 624.127 514.373 630.201 531.007 634.516C554.272 640.55 578.025 644.255 601.454 649.517C670.137 664.944 742.992 673.148 810.301 694.348C846.175 705.647 870.456 727.237 900.021 750.517C918.046 764.711 942.47 786.497 964.32 793.953C983.83 800.61 1003.9 809.539 1018.32 825.003C1031.64 839.285 1041.72 853.004 1062.18 849.424C1106.97 841.586 1155 809.834 1175.33 766.74C1187.84 740.208 1200.85 713.036 1212.54 686.15C1218.38 672.72 1221.16 658.357 1229.82 646.377C1239.94 632.385 1253.21 620.859 1264.71 608.175C1307.32 561.202 1365.4 534.117 1424.55 517.642C1440.59 513.174 1456.47 513.804 1472.9 513.804C1494.05 513.804 1513.33 523.224 1534.37 523.224C1548.14 523.224 1595.6 527.659 1600 513.804" stroke="#FFE1BD" stroke-width="3" stroke-linecap="round"/>
</svg>
