<svg width="1600" height="241" viewBox="0 0 1600 241" fill="none" xmlns="http://www.w3.org/2000/svg">
<path d="M2.396 2.31323C16.3294 16.1816 44.3336 28.5183 67.0069 41.177C82.5647 49.863 92.5262 60.3918 99.8482 69.9407C107.908 80.4514 92.648 91.52 99.8108 102.014C106.19 111.359 124.558 123.37 141.957 131.286C201.757 158.492 289.559 173.821 398.3 177.175C426.666 178.051 455.377 177.243 483.853 177.329C501.13 177.381 517.397 179.044 534.033 180.206C557.301 181.83 581.053 182.789 604.484 184.193C673.173 188.308 746.025 190.35 813.346 196.114C849.226 199.186 873.528 205.234 903.114 211.741C921.153 215.708 945.597 221.811 967.452 223.845C986.966 225.662 1007.04 228.123 1021.48 232.466C1034.81 236.478 1044.91 240.342 1065.36 239.241C1110.14 236.83 1158.11 227.6 1178.39 215.254C1190.88 207.652 1203.85 199.866 1215.51 192.167C1221.33 188.322 1224.09 184.223 1232.74 180.778C1242.84 176.755 1256.09 173.421 1267.58 169.765C1310.13 156.225 1368.17 148.283 1427.28 143.357C1443.32 142.021 1459.2 142.137 1475.62 142.071C1496.77 141.986 1516.06 144.59 1537.1 144.505C1550.86 144.45 1598.32 145.522 1602.7 141.561" stroke="#FFE1BD" stroke-width="3" stroke-linecap="round"/>
</svg>
