<svg width="1600" height="712" viewBox="0 0 1600 712" fill="none" xmlns="http://www.w3.org/2000/svg">
<path d="M0 563.68C50.3741 580.611 114.176 577.198 172.267 580.87C212.128 583.39 249.622 596.974 281.543 611.32C316.679 627.111 324.789 671.845 358.794 688.656C389.078 703.628 440.37 710.835 480.615 709.32C618.933 704.11 762.696 637.136 903.074 516.528C939.694 485.065 972.676 449.14 1007.53 415.646C1028.67 395.325 1052.47 380.082 1075.51 363.191C1107.73 339.568 1138.94 313.769 1170.83 289.421C1264.31 218.045 1357.87 136.749 1453.66 70.9651C1504.72 35.9045 1548.86 21.7169 1600.53 2.38366" stroke="#FFE1BD" stroke-width="3" stroke-linecap="round"/>
</svg>
