<svg width="161" height="179" viewBox="0 0 161 179" fill="none" xmlns="http://www.w3.org/2000/svg">
<path d="M27.1434 115.464C23.1853 118.436 18.9292 119.447 14.3752 118.497C9.82114 117.547 6.19527 114.891 3.49756 110.53C0.799852 106.169 -0.117796 101.479 0.744619 96.4616C1.60703 91.4439 4.01732 87.4489 7.97549 84.4765C11.9336 81.5041 16.1897 80.493 20.7438 81.4432C25.2978 82.3935 28.9236 85.0492 31.6214 89.4103C34.3191 93.7715 35.2367 98.461 34.3743 103.479C33.5119 108.496 31.1016 112.491 27.1434 115.464ZM37.9454 64.4918C33.9872 67.4641 29.7311 68.4752 25.1771 67.525C20.6231 66.5748 16.9972 63.9191 14.2995 59.5579C11.6018 55.1967 10.6842 50.5073 11.5466 45.4896C12.409 40.4719 14.8193 36.4769 18.7774 33.5045C22.7356 30.5321 26.9917 29.521 31.5457 30.4712C36.0997 31.4214 39.7256 34.0771 42.4233 38.4383C45.121 42.7995 46.0387 47.4889 45.1762 52.5066C44.3138 57.5243 41.9035 61.5194 37.9454 64.4918ZM77.0062 35.159C73.048 38.1314 68.7919 39.1425 64.2379 38.1922C59.6839 37.242 56.058 34.5863 53.3603 30.2251C50.6626 25.864 49.745 21.1745 50.6074 16.1568C51.4698 11.1391 53.8801 7.14409 57.8383 4.1717C61.7964 1.19931 66.0525 0.18823 70.6065 1.13845C75.1605 2.08868 78.7864 4.74438 81.4841 9.10555C84.1818 13.4667 85.0995 18.1562 84.2371 23.1739C83.3746 28.1916 80.9644 32.1866 77.0062 35.159ZM124.014 42.7185C120.056 45.6909 115.8 46.702 111.246 45.7518C106.692 44.8016 103.066 42.1459 100.368 37.7847C97.6707 33.4235 96.753 28.7341 97.6154 23.7164C98.4779 18.6987 100.888 14.7036 104.846 11.7312C108.804 8.75885 113.061 7.74776 117.615 8.69798C122.169 9.64821 125.794 12.3039 128.492 16.6651C131.19 21.0263 132.108 25.7157 131.245 30.7334C130.383 35.7511 127.972 39.7461 124.014 42.7185ZM85.8031 174.782C81.4283 178.067 76.7166 178.958 71.6679 177.455C66.6193 175.952 62.5686 172.733 59.516 167.798C56.5343 162.978 55.2179 157.705 55.5668 151.981C55.9156 146.256 56.5355 140.538 57.4265 134.827C58.1562 130.581 58.641 126.309 58.8807 122.011C59.1205 117.713 59.2029 113.407 59.1278 109.093C59.0249 101.775 59.4994 94.5276 60.5516 87.3505C61.6037 80.1733 64.838 74.5511 70.2544 70.4836C75.6708 66.4161 81.6289 65.1354 88.1285 66.6415C94.6281 68.1477 100.986 70.3488 107.201 73.2449C110.818 74.8991 114.441 76.3799 118.072 77.6873C121.703 78.9946 125.445 80.0503 129.298 80.8543C134.449 82.029 139.506 83.4839 144.469 85.2193C149.433 86.9546 153.405 90.2324 156.387 95.0526C159.439 99.9876 160.678 105.319 160.102 111.046C159.526 116.773 157.05 121.279 152.675 124.564C147.05 128.788 141.158 132.457 134.999 135.57C128.839 138.682 122.947 142.351 117.322 146.575C111.698 150.799 106.444 155.5 101.563 160.678C96.6811 165.857 91.4279 170.558 85.8031 174.782Z" fill="#DCB88E"/>
</svg>
